<svg xmlns="http://www.w3.org/2000/svg" class="svg-icon" style="width: 1em; height: 1em;vertical-align: middle;fill: currentColor;overflow: hidden;" viewBox="0 0 1024 1024" version="1.1"><path d="M597.333333 362.666667a64 64 0 0 0-64 64 64 64 0 0 0 64 64 64 64 0 0 0 64-64A64 64 0 0 0 597.333333 362.666667m0 170.666666a64 64 0 0 0-64 64 64 64 0 0 0 64 64 64 64 0 0 0 64-64 64 64 0 0 0-64-64M426.666667 725.333333a42.666667 42.666667 0 0 0-42.666667 42.666667 42.666667 42.666667 0 0 0 42.666667 42.666667 42.666667 42.666667 0 0 0 42.666666-42.666667 42.666667 42.666667 0 0 0-42.666666-42.666667m0-362.666666A64 64 0 0 0 362.666667 426.666667a64 64 0 0 0 64 64 64 64 0 0 0 64-64A64 64 0 0 0 426.666667 362.666667m170.666666 512a21.333333 21.333333 0 0 0-21.333333 21.333333 21.333333 21.333333 0 0 0 21.333333 21.333333 21.333333 21.333333 0 0 0 21.333334-21.333333 21.333333 21.333333 0 0 0-21.333334-21.333333m0-149.333334a42.666667 42.666667 0 0 0-42.666666 42.666667 42.666667 42.666667 0 0 0 42.666666 42.666667 42.666667 42.666667 0 0 0 42.666667-42.666667 42.666667 42.666667 0 0 0-42.666667-42.666667m298.666667-149.333333a21.333333 21.333333 0 0 0-21.333333 21.333333 21.333333 21.333333 0 0 0 21.333333 21.333334 21.333333 21.333333 0 0 0 21.333333-21.333334 21.333333 21.333333 0 0 0-21.333333-21.333333M768 213.333333a42.666667 42.666667 0 0 0-42.666667 42.666667 42.666667 42.666667 0 0 0 42.666667 42.666667 42.666667 42.666667 0 0 0 42.666667-42.666667 42.666667 42.666667 0 0 0-42.666667-42.666667m0 170.666667a42.666667 42.666667 0 0 0-42.666667 42.666667 42.666667 42.666667 0 0 0 42.666667 42.666666 42.666667 42.666667 0 0 0 42.666667-42.666666 42.666667 42.666667 0 0 0-42.666667-42.666667m0 341.333333a42.666667 42.666667 0 0 0-42.666667 42.666667 42.666667 42.666667 0 0 0 42.666667 42.666667 42.666667 42.666667 0 0 0 42.666667-42.666667 42.666667 42.666667 0 0 0-42.666667-42.666667m0-170.666666a42.666667 42.666667 0 0 0-42.666667 42.666666 42.666667 42.666667 0 0 0 42.666667 42.666667 42.666667 42.666667 0 0 0 42.666667-42.666667 42.666667 42.666667 0 0 0-42.666667-42.666666m-341.333333-21.333334A64 64 0 0 0 362.666667 597.333333a64 64 0 0 0 64 64 64 64 0 0 0 64-64 64 64 0 0 0-64-64M426.666667 298.666667a42.666667 42.666667 0 0 0 42.666666-42.666667 42.666667 42.666667 0 0 0-42.666666-42.666667 42.666667 42.666667 0 0 0-42.666667 42.666667 42.666667 42.666667 0 0 0 42.666667 42.666667m0-149.333334a21.333333 21.333333 0 0 0 21.333333-21.333333 21.333333 21.333333 0 0 0-21.333333-21.333333 21.333333 21.333333 0 0 0-21.333334 21.333333 21.333333 21.333333 0 0 0 21.333334 21.333333m0 725.333334a21.333333 21.333333 0 0 0-21.333334 21.333333 21.333333 21.333333 0 0 0 21.333334 21.333333 21.333333 21.333333 0 0 0 21.333333-21.333333 21.333333 21.333333 0 0 0-21.333333-21.333333m-298.666667-298.666667a21.333333 21.333333 0 0 0-21.333333 21.333333 21.333333 21.333333 0 0 0 21.333333 21.333334 21.333333 21.333333 0 0 0 21.333333-21.333334 21.333333 21.333333 0 0 0-21.333333-21.333333m469.333333-426.666667a21.333333 21.333333 0 0 0 21.333334-21.333333 21.333333 21.333333 0 0 0-21.333334-21.333333 21.333333 21.333333 0 0 0-21.333333 21.333333 21.333333 21.333333 0 0 0 21.333333 21.333333M597.333333 298.666667a42.666667 42.666667 0 0 0 42.666667-42.666667 42.666667 42.666667 0 0 0-42.666667-42.666667 42.666667 42.666667 0 0 0-42.666666 42.666667 42.666667 42.666667 0 0 0 42.666666 42.666667m298.666667 149.333333a21.333333 21.333333 0 0 0 21.333333-21.333333 21.333333 21.333333 0 0 0-21.333333-21.333334 21.333333 21.333333 0 0 0-21.333333 21.333334 21.333333 21.333333 0 0 0 21.333333 21.333333M256 213.333333a42.666667 42.666667 0 0 0-42.666667 42.666667 42.666667 42.666667 0 0 0 42.666667 42.666667 42.666667 42.666667 0 0 0 42.666667-42.666667 42.666667 42.666667 0 0 0-42.666667-42.666667M128 405.333333a21.333333 21.333333 0 0 0-21.333333 21.333334 21.333333 21.333333 0 0 0 21.333333 21.333333 21.333333 21.333333 0 0 0 21.333333-21.333333 21.333333 21.333333 0 0 0-21.333333-21.333334M256 384a42.666667 42.666667 0 0 0-42.666667 42.666667 42.666667 42.666667 0 0 0 42.666667 42.666666 42.666667 42.666667 0 0 0 42.666667-42.666666 42.666667 42.666667 0 0 0-42.666667-42.666667m0 341.333333a42.666667 42.666667 0 0 0-42.666667 42.666667 42.666667 42.666667 0 0 0 42.666667 42.666667 42.666667 42.666667 0 0 0 42.666667-42.666667 42.666667 42.666667 0 0 0-42.666667-42.666667m0-170.666666a42.666667 42.666667 0 0 0-42.666667 42.666666 42.666667 42.666667 0 0 0 42.666667 42.666667 42.666667 42.666667 0 0 0 42.666667-42.666667 42.666667 42.666667 0 0 0-42.666667-42.666666z" fill=""/></svg>